<svg width="297" height="271" viewBox="0 0 297 271" fill="none" xmlns="http://www.w3.org/2000/svg">
<path d="M114.961 201C114.397 201 114.116 200.436 114.116 199.309C114.116 198.182 114.397 197.619 114.961 197.619C122.475 197.619 128.016 197.149 131.585 196.21C135.154 195.271 137.596 193.486 138.911 190.857C140.225 188.039 140.883 183.813 140.883 178.177V127.742C140.883 121.168 140.319 116.566 139.192 113.936C138.253 111.306 136.187 109.991 132.994 109.991C129.8 109.991 123.508 111.964 114.116 115.908H113.834C113.083 115.908 112.519 115.439 112.143 114.5C111.768 113.56 111.956 112.997 112.707 112.809L161.17 89.7047C161.357 89.5169 161.639 89.423 162.015 89.423C162.578 89.423 163.048 89.7047 163.424 90.2682C163.799 90.6439 163.987 91.1135 163.987 91.677V178.177C163.987 184 164.551 188.227 165.678 190.857C166.805 193.486 169.059 195.271 172.44 196.21C176.009 197.149 181.644 197.619 189.346 197.619C189.909 197.619 190.191 198.182 190.191 199.309C190.191 200.436 189.909 201 189.346 201C182.771 201 177.606 200.906 173.849 200.718L152.153 200.436L130.458 200.718C126.701 200.906 121.535 201 114.961 201Z" fill="#659888"/>
<path d="M75.75 3C35.5775 3 3 35.929 3 76.5553C3 109.351 15.7313 187.185 141.05 265.867C143.295 267.262 145.872 268 148.5 268C151.128 268 153.705 267.262 155.95 265.867C281.269 187.185 294 109.351 294 76.5553C294 35.929 261.423 3 221.25 3C181.077 3 148.5 47.579 148.5 47.579C148.5 47.579 115.923 3 75.75 3Z" stroke="#659888" stroke-width="5" stroke-linecap="round" stroke-linejoin="round"/>
</svg>
