<svg width="297" height="315" viewBox="0 0 297 315" fill="none" xmlns="http://www.w3.org/2000/svg">
<path d="M106.62 234.02C121.873 220.5 133.14 210.1 140.42 202.82C147.7 195.54 152.9 189.213 156.02 183.84C159.313 178.467 160.96 173.007 160.96 167.46C160.96 160.7 159.14 155.067 155.5 150.56C151.86 145.88 146.92 143.54 140.68 143.54C134.093 143.54 128.547 146.4 124.04 152.12C119.707 157.667 115.72 166.073 112.08 177.34C112.08 177.513 111.733 177.6 111.04 177.6C109.48 177.6 108.787 177.34 108.96 176.82L119.88 133.92C119.88 133.573 120.227 133.4 120.92 133.4C121.44 133.4 121.873 133.573 122.22 133.92C122.74 134.093 122.913 134.267 122.74 134.44C122.567 135.307 122.48 136.347 122.48 137.56C122.48 140.333 123.78 141.72 126.38 141.72C127.94 141.72 130.54 141.113 134.18 139.9C141.807 137.473 148.48 136.26 154.2 136.26C163.56 136.26 170.84 138.6 176.04 143.28C181.413 147.787 184.1 153.767 184.1 161.22C184.1 167.46 182.193 173.44 178.38 179.16C174.567 184.88 169.887 190.167 164.34 195.02C158.967 199.7 151.6 205.593 142.24 212.7C140.16 214.26 138.34 215.647 136.78 216.86C135.22 218.073 133.833 219.113 132.62 219.98C131.927 220.5 131.667 220.933 131.84 221.28C132.187 221.627 132.793 221.8 133.66 221.8C149.433 221.8 160.873 221.54 167.98 221.02C175.087 220.5 180.547 219.287 184.36 217.38C188.173 215.473 190.687 212.18 191.9 207.5C191.9 207.153 192.333 206.98 193.2 206.98C194.413 206.98 195.02 207.24 195.02 207.76L190.08 237.14C190.08 237.833 189.82 238.527 189.3 239.22C188.953 239.74 188.433 240 187.74 240H108.18C107.313 240 106.62 239.22 106.1 237.66C105.753 235.927 105.927 234.713 106.62 234.02Z" fill="#659888"/>
<path d="M75.75 47C35.5775 47 3 79.929 3 120.555C3 153.351 15.7313 231.185 141.05 309.867C143.295 311.262 145.872 312 148.5 312C151.128 312 153.705 311.262 155.95 309.867C281.269 231.185 294 153.351 294 120.555C294 79.929 261.423 47 221.25 47C181.077 47 148.5 91.579 148.5 91.579C148.5 91.579 115.923 47 75.75 47Z" stroke="#659888" stroke-width="5" stroke-linecap="round" stroke-linejoin="round"/>
</svg>
