<svg width="297" height="295" viewBox="0 0 297 295" fill="none" xmlns="http://www.w3.org/2000/svg">
<path d="M158.8 158.8C168 160.133 174.933 163.467 179.6 168.8C184.267 174 186.6 180.133 186.6 187.2C186.6 193.6 184.4 200.067 180 206.6C175.6 213.267 168.867 219.533 159.8 225.4C150.733 231.267 139.533 236.133 126.2 240C125.667 240.133 125.2 239.8 124.8 239C124.533 238.333 124.667 237.933 125.2 237.8C140.267 232.2 151.067 224.933 157.6 216C164.133 207.2 167.4 198.4 167.4 189.6C167.4 182 165.4 175.8 161.4 171C157.533 166.2 152.067 163.8 145 163.8C142.333 163.8 139.467 164.2 136.4 165C136 165.133 135.667 164.8 135.4 164C135.133 163.2 135.2 162.733 135.6 162.6C145.2 160.067 152.133 156.4 156.4 151.6C160.8 146.667 163 139.933 163 131.4C163 124.733 161.8 119.6 159.4 116C157.133 112.267 153.733 110.4 149.2 110.4C143.6 110.4 138.6 112.333 134.2 116.2C129.8 120.067 126.2 125.8 123.4 133.4C123.267 133.533 123 133.6 122.6 133.6C121.4 133.6 120.867 133.333 121 132.8L128.4 103.6C128.667 103.333 128.933 103.2 129.2 103.2C129.6 103.2 130 103.333 130.4 103.6C130.8 103.733 130.933 103.867 130.8 104C130.533 105.067 130.4 105.8 130.4 106.2C130.4 108.467 131.533 109.6 133.8 109.6C135.4 109.6 137.6 109.067 140.4 108C143.467 107.067 146.067 106.4 148.2 106C150.467 105.467 153 105.2 155.8 105.2C163.533 105.2 169.6 107.467 174 112C178.4 116.4 180.6 121.733 180.6 128C180.6 134.4 178.667 140.467 174.8 146.2C170.933 151.8 165.6 156 158.8 158.8Z" fill="#659888"/>
<path d="M75.75 27C35.5775 27 3 59.929 3 100.555C3 133.351 15.7313 211.185 141.05 289.867C143.295 291.262 145.872 292 148.5 292C151.128 292 153.705 291.262 155.95 289.867C281.269 211.185 294 133.351 294 100.555C294 59.929 261.423 27 221.25 27C181.077 27 148.5 71.579 148.5 71.579C148.5 71.579 115.923 27 75.75 27Z" stroke="#659888" stroke-width="5" stroke-linecap="round" stroke-linejoin="round"/>
</svg>
