<svg width="297" height="282" viewBox="0 0 297 282" fill="none" xmlns="http://www.w3.org/2000/svg">
<path d="M185.6 175.6C186.133 175.6 186.4 176.733 186.4 179C186.4 180.333 186.267 181.667 186 183C185.733 184.2 185.467 184.8 185.2 184.8L180.4 184.6C176.133 184.333 172.933 184.2 170.8 184.2V213.2C170.8 214.533 170.267 215.467 169.2 216L156 222.6C155.2 222.867 154.8 223 154.8 223C154.4 223 154.2 222.467 154.2 221.4V183.6C146.067 183.467 130.8 183.4 108.4 183.4C107.733 183.4 107.2 183.133 106.8 182.6C106.4 182.067 106.467 181.533 107 181L167.8 105.8C168.067 105.533 168.467 105.4 169 105.4C169.4 105.4 169.8 105.533 170.2 105.8C170.6 105.933 170.8 106.2 170.8 106.6V176.2L185.6 175.6ZM119.8 176.8C136.333 176.8 147.8 176.733 154.2 176.6V132.6L118.8 175.4C118 176.333 118.333 176.8 119.8 176.8Z" fill="#659888"/>
<path d="M75.75 14C35.5775 14 3 46.929 3 87.5553C3 120.351 15.7313 198.185 141.05 276.867C143.295 278.262 145.872 279 148.5 279C151.128 279 153.705 278.262 155.95 276.867C281.269 198.185 294 120.351 294 87.5553C294 46.929 261.423 14 221.25 14C181.077 14 148.5 58.579 148.5 58.579C148.5 58.579 115.923 14 75.75 14Z" stroke="#659888" stroke-width="5" stroke-linecap="round" stroke-linejoin="round"/>
</svg>
