<svg width="297" height="299" viewBox="0 0 297 299" fill="none" xmlns="http://www.w3.org/2000/svg">
<path d="M129.4 145.8C147.933 145.933 161.533 149.333 170.2 156C179 162.667 183.4 171.733 183.4 183.2C183.4 190.8 181.4 197.667 177.4 203.8C173.533 210.067 167.4 216.067 159 221.8C150.6 227.667 139.467 233.733 125.6 240H125.4C124.867 240 124.4 239.667 124 239C123.733 238.467 123.867 238.067 124.4 237.8C139.467 229.667 150 221.467 156 213.2C162.133 204.933 165.2 196.067 165.2 186.6C165.2 175.533 161.8 166.933 155 160.8C148.2 154.667 138.4 151.6 125.6 151.6C124.933 151.6 124.4 151.4 124 151C123.6 150.467 123.467 149.867 123.6 149.2L130 113.6C130.133 112.667 130.333 112.133 130.6 112C130.867 111.733 131.533 111.533 132.6 111.4C149.4 109.4 160.667 108 166.4 107.2C172.133 106.4 175.8 105.6 177.4 104.8C179.133 103.867 180.333 102.4 181 100.4C181.133 100 181.533 99.8667 182.2 100C183 100 183.333 100.267 183.2 100.8L179.2 120.4C178.8 122 178.2 123 177.4 123.4C176.733 123.8 175.467 124 173.6 124L135.6 124.8C133.867 124.8 132.867 125.8 132.6 127.8L129.4 145.8Z" fill="#659888"/>
<path d="M75.75 31C35.5775 31 3 63.929 3 104.555C3 137.351 15.7313 215.185 141.05 293.867C143.295 295.262 145.872 296 148.5 296C151.128 296 153.705 295.262 155.95 293.867C281.269 215.185 294 137.351 294 104.555C294 63.929 261.423 31 221.25 31C181.077 31 148.5 75.579 148.5 75.579C148.5 75.579 115.923 31 75.75 31Z" stroke="#659888" stroke-width="5" stroke-linecap="round" stroke-linejoin="round"/>
</svg>
