<svg width="297" height="271" viewBox="0 0 297 271" fill="none" xmlns="http://www.w3.org/2000/svg">
<path d="M169.2 142.8C177.867 142.8 184.4 145.333 188.8 150.4C193.2 155.333 195.4 161.267 195.4 168.2C195.4 174.467 193.533 180.267 189.8 185.6C186.067 190.8 181 194.933 174.6 198C168.333 201.067 161.467 202.6 154 202.6C142.267 202.6 133 198.733 126.2 191C119.4 183.133 116 172.333 116 158.6C116 146.067 118.867 133.8 124.6 121.8C130.467 109.667 138.8 98.8667 149.6 89.4C160.533 79.9333 173.333 72.7333 188 67.8C188.533 67.6667 188.933 67.9333 189.2 68.6C189.467 69.2667 189.4 69.7333 189 70C177.133 75.7333 167.067 83.2667 158.8 92.6C150.533 101.8 144.333 111.867 140.2 122.8C136.067 133.733 134 144.667 134 155.6C134 163.467 135 170.667 137 177.2C139.133 183.6 142.133 188.733 146 192.6C149.867 196.333 154.333 198.2 159.4 198.2C164.867 198.2 169.2 196.067 172.4 191.8C175.733 187.4 177.4 181.4 177.4 173.8C177.4 166.733 175.867 161.067 172.8 156.8C169.867 152.4 165.467 150.2 159.6 150.2C156.933 150.2 154.333 150.733 151.8 151.8C149.4 152.867 146.667 154.6 143.6 157C143.467 157.133 143.267 157.2 143 157.2C142.6 157.2 142.2 157 141.8 156.6C141.4 156.2 141.267 155.867 141.4 155.6C148.867 147.067 158.133 142.8 169.2 142.8Z" fill="#659888"/>
<path d="M75.75 3C35.5775 3 3 35.929 3 76.5553C3 109.351 15.7313 187.185 141.05 265.867C143.295 267.262 145.872 268 148.5 268C151.128 268 153.705 267.262 155.95 265.867C281.269 187.185 294 109.351 294 76.5553C294 35.929 261.423 3 221.25 3C181.077 3 148.5 47.579 148.5 47.579C148.5 47.579 115.923 3 75.75 3Z" stroke="#659888" stroke-width="5" stroke-linecap="round" stroke-linejoin="round"/>
</svg>
