<svg width="297" height="301" viewBox="0 0 297 301" fill="none" xmlns="http://www.w3.org/2000/svg">
<path d="M144.4 227.8C143.6 230.067 142.2 231.667 140.2 232.6L126 240H125.8C125.4 240 125.067 239.8 124.8 239.4C124.533 239.133 124.467 238.867 124.6 238.6L177 124.2C177.533 123.267 177.267 122.8 176.2 122.8C157 122.8 143.667 123.067 136.2 123.6C128.733 124.133 123.733 125.267 121.2 127C118.8 128.733 116.933 131.867 115.6 136.4C115.333 136.667 115 136.8 114.6 136.8C114.2 136.8 113.8 136.733 113.4 136.6C113.133 136.333 113.067 136.067 113.2 135.8L121.6 102.4C121.733 102.133 122.2 102.067 123 102.2C123.8 102.2 124.133 102.333 124 102.6C123.867 103.133 123.8 103.8 123.8 104.6C123.8 105.933 124.4 106.8 125.6 107.2C126.933 107.6 129.533 107.8 133.4 107.8H186.4C186.933 107.8 187.4 108.133 187.8 108.8C188.333 109.333 188.467 109.867 188.2 110.4L144.4 227.8Z" fill="#659888"/>
<path d="M75.75 33C35.5774 33 3 65.929 3 106.555C3 139.351 15.7312 217.185 141.05 295.867C143.295 297.262 145.872 298 148.5 298C151.128 298 153.705 297.262 155.95 295.867C281.269 217.185 294 139.351 294 106.555C294 65.929 261.423 33 221.25 33C181.077 33 148.5 77.579 148.5 77.579C148.5 77.579 115.923 33 75.75 33Z" stroke="#659888" stroke-width="5" stroke-linecap="round" stroke-linejoin="round"/>
</svg>
