<svg width="211" height="49" viewBox="0 0 211 49" fill="none" xmlns="http://www.w3.org/2000/svg">
<path d="M0.84375 1.96875H14.0312V2.4375C12.5938 2.375 11.5833 2.59375 11 3.09375C10.4167 3.57292 10.125 4.84375 10.125 6.90625V24.5625L37.4688 4.03125C38.0104 3.65625 38.2812 3.3125 38.2812 3C38.2812 2.625 37.6667 2.4375 36.4375 2.4375V1.96875H46.375V2.4375C43.875 2.5 41.4375 3.41667 39.0625 5.1875L15.25 22.9688L39 41.0312C39.0208 41.0521 39.0521 41.0729 39.0938 41.0938C39.1354 41.1146 39.1667 41.1458 39.1875 41.1875C39.2292 41.2083 39.2708 41.2188 39.3125 41.2188C42.4375 43.5521 44.8542 45.1979 46.5625 46.1562C48.2917 47.0938 49.9062 47.5625 51.4062 47.5625V48H35.75V47.5625C37.1458 47.5625 37.8438 47.4062 37.8438 47.0938C37.8438 46.8229 37.2708 46.25 36.125 45.375L10.125 25.5938V42.6875C10.125 44.6875 10.2604 45.9167 10.5312 46.375C10.8229 46.8333 11.1979 47.1667 11.6562 47.375C12.1354 47.5625 12.9062 47.625 13.9688 47.5625V48H0.84375V47.5625C2.59375 47.6458 3.6875 47.3854 4.125 46.7812C4.58333 46.1562 4.8125 44.8542 4.8125 42.875V7.15625C4.8125 5.11458 4.58333 3.79167 4.125 3.1875C3.6875 2.58333 2.59375 2.33333 0.84375 2.4375V1.96875Z" fill="black"/>
<path d="M73.1562 1.28125C79.6146 1.28125 84.8958 3.25 89 7.1875C93.1042 11.1042 95.1562 16 95.1562 21.875C95.1562 29.4375 92.7812 35.8021 88.0312 40.9688C83.2812 46.1354 76.9792 48.7188 69.125 48.7188C62.75 48.7188 57.5312 46.6354 53.4688 42.4688C49.4062 38.3021 47.375 33.3021 47.375 27.4688C47.375 23.5312 48.3542 19.4896 50.3125 15.3438C52.2708 11.1979 55.2188 7.82292 59.1562 5.21875C63.0938 2.59375 67.7604 1.28125 73.1562 1.28125ZM72.9688 46.2812C76.1354 46.2812 79.2604 45.4375 82.3438 43.75C85.4271 42.0417 87.8542 39.6979 89.625 36.7188C91.3958 33.7396 92.2812 30.6771 92.2812 27.5312C92.2812 23.0729 91.0833 19.0208 88.6875 15.375C86.3125 11.7292 83.2188 8.875 79.4062 6.8125C75.6146 4.75 72.1042 3.71875 68.875 3.71875C64.3125 3.71875 60.1667 5.4375 56.4375 8.875C52.7292 12.3125 50.875 16.5833 50.875 21.6875C50.875 28.2083 53.1458 33.9375 57.6875 38.875C62.2292 43.8125 67.3229 46.2812 72.9688 46.2812Z" fill="black"/>
<path d="M135.156 0.375L132.969 5.9375H132.531C132.615 5.60417 132.656 5.15625 132.656 4.59375C132.656 4.11458 132.479 3.8125 132.125 3.6875C131.792 3.54167 131.25 3.46875 130.5 3.46875H118.469V42.875C118.469 44.5 118.594 45.6146 118.844 46.2188C119.115 46.8021 119.469 47.1771 119.906 47.3438C120.365 47.4896 121.094 47.5625 122.094 47.5625V48H109.625V47.5625C111.188 47.4583 112.167 47.1562 112.562 46.6562C112.958 46.1562 113.156 45.1146 113.156 43.5312V3.46875H101.625C100.458 3.46875 99.6979 3.54167 99.3438 3.6875C98.9896 3.8125 98.8125 4.14583 98.8125 4.6875C98.8125 4.95833 98.8958 5.375 99.0625 5.9375H98.625L96.4375 0.375H96.875C97.25 1.125 97.6146 1.58333 97.9688 1.75C98.3438 1.89583 99.1354 1.96875 100.344 1.96875H130.938C132.146 1.96875 133.01 1.89583 133.531 1.75C134.073 1.58333 134.469 1.125 134.719 0.375H135.156Z" fill="black"/>
<path d="M164.5 1.96875H171.406V2.4375C170.531 2.5 169.812 2.70833 169.25 3.0625C168.688 3.41667 168.042 4.14583 167.312 5.25L156.062 22.2812V43.4062C156.062 45.1146 156.281 46.2396 156.719 46.7812C157.156 47.3021 158.104 47.5625 159.562 47.5625V48H147.281V47.5625C149.635 47.7083 150.812 46.7812 150.812 44.7812L150.75 43.4688V24L139.469 5.3125C138.281 3.33333 136.958 2.375 135.5 2.4375V1.96875H146.375V2.4375C145.354 2.4375 144.844 2.82292 144.844 3.59375C144.844 3.98958 145.104 4.60417 145.625 5.4375L154.906 20.75L165.062 5.3125C165.25 5.14583 165.458 4.84375 165.688 4.40625C165.917 3.94792 166.031 3.63542 166.031 3.46875C166.031 2.78125 165.583 2.4375 164.688 2.4375H164.5V1.96875Z" fill="black"/>
<path d="M193.75 26.8125H180.312L173.344 44.2188C172.865 45.4688 172.625 46.2396 172.625 46.5312C172.625 47.2188 173.135 47.5625 174.156 47.5625V48H167.312V47.5625C168.229 47.5625 169 47.3438 169.625 46.9062C170.25 46.4479 170.938 45.2812 171.688 43.4062L188.375 1.28125H189.156L205.594 41.9688C205.594 42.1771 206.01 43.1667 206.844 44.9375C207.698 46.6875 208.99 47.5625 210.719 47.5625V48H199.969V47.5625C200.948 47.5625 201.438 47.1771 201.438 46.4062C201.438 45.8854 201.198 45.0521 200.719 43.9062C200.635 43.8229 200.562 43.6875 200.5 43.5C200.458 43.2917 200.427 43.1875 200.406 43.1875L193.75 26.8125ZM180.75 25.5312H193.188L186.969 9.84375L180.75 25.5312Z" fill="black"/>
</svg>
