<svg width="90" height="90" viewBox="0 0 90 90" fill="none" xmlns="http://www.w3.org/2000/svg">
<path d="M62.2501 21.825C62.2501 21.825 64.1626 23.7 62.2501 21.825C59.6867 18.8986 58.274 15.1404 58.2751 11.25H46.6876V57.75C46.5982 60.2663 45.5359 62.6498 43.7242 64.3985C41.9126 66.1472 39.493 67.1246 36.9751 67.125C31.6501 67.125 27.2251 62.775 27.2251 57.375C27.2251 50.925 33.4501 46.0875 39.8626 48.075V36.225C26.9251 34.5 15.6001 44.55 15.6001 57.375C15.6001 69.8625 25.9501 78.75 36.9376 78.75C48.7126 78.75 58.2751 69.1875 58.2751 57.375V33.7875C62.9738 37.1619 68.6152 38.9724 74.4001 38.9625V27.375C74.4001 27.375 67.3501 27.7125 62.2501 21.825Z" fill="black"/>
</svg>
