<svg width="90" height="90" viewBox="0 0 90 90" fill="none" xmlns="http://www.w3.org/2000/svg">
<g clip-path="url(#clip0_56_4)">
<path d="M58.8123 0H31.1851C5.97388 0 -0.00268555 5.97656 -0.00268555 31.1878V58.815C-0.00268555 84.0263 5.97388 90.0028 31.1851 90.0028H58.8123C84.0236 90.0028 90.0001 84.0263 90.0001 58.815V31.1878C90.0001 5.97656 83.9645 0 58.8123 0ZM72.6554 64.2037H66.122C63.647 64.2037 62.8848 62.2406 58.4326 57.7294C54.5654 53.9803 52.8526 53.4825 51.8992 53.4825C50.552 53.4825 50.1695 53.8622 50.1695 55.71V61.6134C50.1695 63.1969 49.6717 64.1475 45.4811 64.1475C38.5511 64.1475 30.8617 59.9569 25.4701 52.1494C17.3392 40.7081 15.1145 32.1384 15.1145 30.3666C15.1145 29.4131 15.4942 28.5216 17.3251 28.5216H23.8726C25.5292 28.5216 26.1592 29.2837 26.8033 31.0556C30.0404 40.4016 35.432 48.5887 37.6567 48.5887C38.4779 48.5887 38.8576 48.2091 38.8576 46.1137V36.4612C38.6073 32.0091 36.2645 31.6266 36.2645 30.0459C36.2645 29.2837 36.8945 28.5216 37.9042 28.5216H48.2008C49.5929 28.5216 50.1048 29.2837 50.1048 30.9234V43.9453C50.1048 45.3516 50.7348 45.8494 51.1145 45.8494C51.9357 45.8494 52.6389 45.3516 54.1604 43.8272C58.8629 38.5538 62.2323 30.4228 62.2323 30.4228C62.6711 29.4694 63.4332 28.5778 65.0898 28.5778H71.6373C73.6004 28.5778 74.0392 29.5875 73.6004 30.9938C72.7792 34.8019 64.7664 46.1109 64.7664 46.1109C64.0773 47.2528 63.8129 47.7506 64.7664 49.0247C65.4695 49.9781 67.7561 51.9553 69.2776 53.7272C72.0761 56.9053 74.2276 59.5716 74.8014 61.4166C75.4454 63.2475 74.4948 64.2009 72.647 64.2009L72.6554 64.2037Z" fill="black"/>
</g>
<defs>
<clipPath id="clip0_56_4">
<rect width="90" height="90" fill="white"/>
</clipPath>
</defs>
</svg>
